<?xml version="1.0" standalone="no"?>
<!DOCTYPE svg PUBLIC "-//W3C//DTD SVG 20010904//EN"
 "http://www.w3.org/TR/2001/REC-SVG-20010904/DTD/svg10.dtd">
<svg version="1.0" xmlns="http://www.w3.org/2000/svg"
 width="512.000000pt" height="512.000000pt" viewBox="0 0 512.000000 512.000000"
 preserveAspectRatio="xMidYMid meet">

<g transform="translate(0.000000,512.000000) scale(0.100000,-0.100000)"
fill="#000000" stroke="none">
<path d="M2330 5110 c-199 -18 -464 -78 -649 -146 -237 -88 -529 -254 -727
-414 -101 -82 -302 -283 -384 -384 -160 -198 -326 -490 -414 -727 -124 -336
-178 -742 -146 -1097 19 -216 76 -470 146 -661 88 -237 254 -529 414 -727 82
-101 283 -302 384 -384 198 -160 490 -326 727 -414 336 -124 742 -178 1097
-146 216 19 470 76 661 146 237 88 529 254 727 414 101 82 302 283 384 384
160 198 326 490 414 727 70 191 127 445 146 661 32 355 -22 761 -146 1097 -88
237 -254 529 -414 727 -82 101 -283 302 -384 384 -198 160 -490 326 -727 414
-337 124 -747 178 -1109 146z m490 -1525 l0 -255 -260 0 -260 0 0 255 0 255
260 0 260 0 0 -255z m-2 -1537 l2 -768 -260 0 -260 0 0 763 c0 420 3 767 7
771 4 3 119 5 257 4 l251 -3 3 -767z"/>
</g>
</svg>
