<?xml version="1.0" standalone="no"?>
<!DOCTYPE svg PUBLIC "-//W3C//DTD SVG 20010904//EN"
 "http://www.w3.org/TR/2001/REC-SVG-20010904/DTD/svg10.dtd">
<svg version="1.0" xmlns="http://www.w3.org/2000/svg"
 width="512.000000pt" height="512.000000pt" viewBox="0 0 512.000000 512.000000"
 preserveAspectRatio="xMidYMid meet">

<g transform="translate(0.000000,512.000000) scale(0.100000,-0.100000)"
fill="#000000" stroke="none">
<path d="M2492 4990 c-65 -14 -130 -50 -184 -102 -82 -80 -118 -186 -118 -350
l0 -76 -117 -37 c-133 -42 -322 -136 -433 -214 -329 -235 -539 -555 -633 -964
-20 -88 -21 -126 -26 -879 l-6 -788 -242 -243 -243 -242 0 -123 0 -122 2070 0
2070 0 0 122 0 123 -242 242 -243 243 -6 788 c-5 753 -6 791 -26 879 -94 409
-304 729 -633 964 -110 78 -300 172 -432 214 l-115 36 -6 117 c-8 180 -56 280
-169 354 -84 56 -179 76 -266 58z"/>
<path d="M936 4878 c-521 -419 -868 -1075 -930 -1760 l-7 -68 245 0 244 0 7
68 c60 580 342 1095 777 1422 46 34 84 65 86 69 1 3 -73 82 -166 174 l-167
167 -89 -72z"/>
<path d="M3952 4777 l-171 -172 62 -45 c91 -66 248 -221 337 -331 240 -299
392 -668 441 -1076 l12 -103 244 0 244 0 -6 63 c-55 550 -244 1026 -567 1425
-79 98 -251 270 -349 349 l-76 62 -171 -172z"/>
<path d="M2075 558 c27 -194 157 -350 345 -414 84 -29 267 -26 334 4 75 34
140 86 180 144 44 65 102 206 110 271 l6 47 -491 0 -491 0 7 -52z"/>
</g>
</svg>
