<?xml version="1.0" encoding="UTF-8"?>
<!DOCTYPE svg PUBLIC "-//W3C//DTD SVG 1.1//EN" "http://www.w3.org/Graphics/SVG/1.1/DTD/svg11.dtd">
<!-- Creator: CorelDRAW 2020 (64 Bit) -->
<svg xmlns="http://www.w3.org/2000/svg" xml:space="preserve" width="350mm" height="240mm" version="1.1" style="shape-rendering:geometricPrecision; text-rendering:geometricPrecision; image-rendering:optimizeQuality; fill-rule:evenodd; clip-rule:evenodd"
viewBox="0 0 35000 24000"
 xmlns:xlink="http://www.w3.org/1999/xlink"
 xmlns:xodm="http://www.corel.com/coreldraw/odm/2003">
 <defs>
  <style type="text/css">
   <![CDATA[
    .fil0 {fill:#303035}
    .fil1 {fill:#F4B700}
    .fil2 {fill:#FA5030}
    .fil3 {fill:#FEFEFE}
   ]]>
  </style>
 </defs>
 <g id="Camada_x0020_1">
  <metadata id="CorelCorpID_0Corel-Layer"/>
  <g id="_2053140528464">
   <path class="fil0" d="M39156.52 10056.15l559.33 0c-7.14,336.85 -7.14,673.69 -7.14,1010.54 0,165.4 -3.76,335.11 -0.04,499.96 2.4,106.35 43.96,106.96 142.52,106.74l4529.83 -0.06c87.76,0.2 152.77,8.2 158.02,-90.54 8.52,-160.14 0.36,-344.79 0.36,-507.63 0,-339.67 0,-679.34 0,-1019.01l552.26 0.07 0 2322.8c0.05,257.18 -38.07,451.63 -169.44,609.06 -289.72,347.18 -701.57,307.15 -1243.98,307.15 -1032.93,0 -2065.86,0 -3098.79,0 -555.49,0 -950.94,44.77 -1238.94,-312.23 -112.73,-139.74 -178.24,-357.15 -183.45,-586.96 -5.83,-257.35 -0.54,-520.97 -0.54,-779.02 0,-520.29 0,-1040.58 0,-1560.87zm2296.76 -1749.59c0.04,-422.75 -12.93,-971.24 7.07,-1371.4 10.2,-204.05 8.67,-255.52 172.66,-326.84 227.11,-98.76 627.37,-95.73 839.15,17.44 140.42,75.04 145.48,143.04 176.25,322.33 59.7,347.9 300.27,2053.6 248.91,2236.78 -125.34,447.09 -1112.99,444.44 -1362.25,45.68 -90.66,-145.04 -81.83,-712.36 -81.79,-923.99zm1634.3 -1185.33c-4.26,-78.8 -14.45,-202.82 -0.07,-277.84 45.83,-239.09 801.61,-398.63 1064.05,-203.77 85.33,63.36 130.64,308.72 158.25,417.1 104.42,409.86 356.99,1508.44 408.01,1895.14 81.79,619.93 -1255.2,774.88 -1403.43,243.46 -80.16,-287.41 -103.82,-705.57 -133,-1019.79 -32.45,-349.56 -74.78,-702.31 -93.81,-1054.3zm-2034.64 296.31l0.91 1295.42c-1.51,527.75 -61.25,792.61 -703,791.84 -490.21,-0.58 -764.08,-80.21 -725.48,-597.24 14.48,-193.86 48.92,-391.45 72.28,-584.89 50.84,-421.07 118.5,-1057.95 198.5,-1460.64 23.15,-116.53 49.35,-163.79 125.02,-214.34 162.21,-108.35 608.46,-151.51 828.75,-59.45 39.4,16.47 79.2,37 112.02,57.41 36.49,22.69 68.36,50.7 101.44,66.35l-10.44 705.54zm-1539.5 -696.03c11.35,231.01 -85.43,809.68 -124.28,1063.22 -52.43,342.22 -112.2,682.94 -172.35,1021.05 -27.84,156.48 -45.97,364.06 -135.01,458.51 -74.11,78.61 -243.86,165.59 -381.97,210.76 -366.35,119.83 -718.11,30.51 -901.58,-190.51 -101.92,-122.78 -34.22,-239.08 18.62,-464.07 112.8,-480.26 239.14,-948.5 356.32,-1430.19 37.65,-154.73 79.06,-315.41 126.08,-466.64 55.38,-178.08 113.26,-254.08 273.24,-319.18 197.84,-80.51 561.78,-88.82 763.82,-9.7 37.19,14.56 73.66,37.15 96.94,55.71 36.36,28.99 34.5,48.75 80.17,71.04zm5216.69 162.65c-38.65,-358.64 503.53,-383.58 807.01,-317.85 412.4,89.3 401.62,276.19 508.14,685.23l359.5 1419.32c22.33,91.58 107.7,421.68 103.27,499.31 -6.77,118.43 -191.12,260.89 -292.52,302.09 -278.2,113.05 -707.5,30.3 -958.41,-136.96 -139.36,-92.91 -159.18,-200.16 -198.99,-402.88 -65.37,-332.9 -119.76,-672.44 -172.79,-1010.42 -27.09,-172.66 -52.19,-344.59 -77.66,-515.91 -25.37,-170.6 -59.35,-353.04 -77.55,-521.93zm-7630.48 -1845.73l0 9872.12c0,82.13 70.27,152.4 152.4,152.4l9872.12 0c82.13,0 152.4,-70.27 152.4,-152.4l0 -9872.12c0,-82.13 -70.27,-152.4 -152.4,-152.4l-9872.12 0c-82.13,0 -152.4,70.27 -152.4,152.4z"/>
   <path class="fil1" d="M41989.77 12031.15c343.38,-83.18 782.07,285.81 542.76,675.53 -242.57,395.02 -748.61,232.08 -843.1,-75.01 -51.18,-166.31 2.45,-528.37 300.34,-600.52zm-2833.25 -1975c0,520.29 0,1040.58 0,1560.87 0,258.05 -5.29,521.67 0.54,779.02 5.21,229.81 70.72,447.22 183.45,586.96 288,357 683.45,312.23 1238.94,312.23 1032.93,0 2065.86,0 3098.79,0 542.41,0 954.26,40.03 1243.98,-307.15 131.37,-157.43 169.49,-351.88 169.44,-609.06l0 -2322.8 -552.26 -0.07c0,339.67 0,679.34 0,1019.01 0,162.84 8.16,347.49 -0.36,507.63 -5.25,98.74 -70.26,90.74 -158.02,90.54l-4529.83 0.06c-98.56,0.22 -140.12,-0.39 -142.52,-106.74 -3.72,-164.85 0.04,-334.56 0.04,-499.96 0,-336.85 0,-673.69 7.14,-1010.54l-559.33 0z"/>
   <path class="fil2" d="M43087.58 7121.23c19.03,351.99 61.36,704.74 93.81,1054.3 29.18,314.22 52.84,732.38 133,1019.79 148.23,531.42 1485.22,376.47 1403.43,-243.46 -51.02,-386.7 -303.59,-1485.28 -408.01,-1895.14 -27.61,-108.38 -72.92,-353.74 -158.25,-417.1 -262.44,-194.86 -1018.22,-35.32 -1064.05,203.77 -14.38,75.02 -4.19,199.04 0.07,277.84z"/>
   <path class="fil3" d="M41453.28 8306.56c-0.04,211.63 -8.87,778.95 81.79,923.99 249.26,398.76 1236.91,401.41 1362.25,-45.68 51.36,-183.18 -189.21,-1888.88 -248.91,-2236.78 -30.77,-179.29 -35.83,-247.29 -176.25,-322.33 -211.78,-113.17 -612.04,-116.2 -839.15,-17.44 -163.99,71.32 -162.46,122.79 -172.66,326.84 -20,400.16 -7.03,948.65 -7.07,1371.4z"/>
   <path class="fil3" d="M44730.13 6884.16c18.2,168.89 52.18,351.33 77.55,521.93 25.47,171.32 50.57,343.25 77.66,515.91 53.03,337.98 107.42,677.52 172.79,1010.42 39.81,202.72 59.63,309.97 198.99,402.88 250.91,167.26 680.21,250.01 958.41,136.96 101.4,-41.2 285.75,-183.66 292.52,-302.09 4.43,-77.63 -80.94,-407.73 -103.27,-499.31l-359.5 -1419.32c-106.52,-409.04 -95.74,-595.93 -508.14,-685.23 -303.48,-65.73 -845.66,-40.79 -807.01,317.85z"/>
   <path class="fil3" d="M39513.44 6721.51c-45.67,-22.29 -43.81,-42.05 -80.17,-71.04 -23.28,-18.56 -59.75,-41.15 -96.94,-55.71 -202.04,-79.12 -565.98,-70.81 -763.82,9.7 -159.98,65.1 -217.86,141.1 -273.24,319.18 -47.02,151.23 -88.43,311.91 -126.08,466.64 -117.18,481.69 -243.52,949.93 -356.32,1430.19 -52.84,224.99 -120.54,341.29 -18.62,464.07 183.47,221.02 535.23,310.34 901.58,190.51 138.11,-45.17 307.86,-132.15 381.97,-210.76 89.04,-94.45 107.17,-302.03 135.01,-458.51 60.15,-338.11 119.92,-678.83 172.35,-1021.05 38.85,-253.54 135.63,-832.21 124.28,-1063.22z"/>
   <path class="fil2" d="M41063.38 6712c-33.08,-15.65 -64.95,-43.66 -101.44,-66.35 -32.82,-20.41 -72.62,-40.94 -112.02,-57.41 -220.29,-92.06 -666.54,-48.9 -828.75,59.45 -75.67,50.55 -101.87,97.81 -125.02,214.34 -80,402.69 -147.66,1039.57 -198.5,1460.64 -23.36,193.44 -57.8,391.03 -72.28,584.89 -38.6,517.03 235.27,596.66 725.48,597.24 641.75,0.77 701.49,-264.09 703,-791.84l-0.91 -1295.42 10.44 -705.54z"/>
   <path class="fil0" d="M41989.77 12031.15c-297.89,72.15 -351.52,434.21 -300.34,600.52 94.49,307.09 600.53,470.03 843.1,75.01 239.31,-389.72 -199.38,-758.71 -542.76,-675.53z"/>
  </g>
 </g>
</svg>
