<?xml version="1.0" standalone="no"?>
<!DOCTYPE svg PUBLIC "-//W3C//DTD SVG 20010904//EN"
 "http://www.w3.org/TR/2001/REC-SVG-20010904/DTD/svg10.dtd">
<svg version="1.0" xmlns="http://www.w3.org/2000/svg"
 width="512.000000pt" height="512.000000pt" viewBox="0 0 512.000000 512.000000"
 preserveAspectRatio="xMidYMid meet">

<g transform="translate(0.000000,512.000000) scale(0.100000,-0.100000)"
fill="#000000" stroke="none">
<path d="M287 4833 c-4 -3 -7 -132 -7 -285 l0 -278 2280 0 2280 0 -2 283 -3
282 -2271 3 c-1249 1 -2274 -1 -2277 -5z"/>
<path d="M141 3273 l-141 -708 0 -287 0 -288 140 0 140 0 2 -852 3 -853 1420
0 1420 0 3 853 2 852 570 0 570 0 0 -855 0 -855 283 2 282 3 3 852 2 853 140
0 140 0 0 288 0 287 -141 708 -142 707 -2277 0 -2277 0 -142 -707z m2419
-1853 l0 -570 -852 2 -853 3 -3 568 -2 567 855 0 855 0 0 -570z"/>
</g>
</svg>
