<?xml version="1.0" encoding="UTF-8"?>
<!DOCTYPE svg PUBLIC "-//W3C//DTD SVG 1.1//EN" "http://www.w3.org/Graphics/SVG/1.1/DTD/svg11.dtd">
<!-- Creator: CorelDRAW (Evaluation Version) -->
<svg xmlns="http://www.w3.org/2000/svg" xml:space="preserve" width="300%" height="300%" version="1.1" style="shape-rendering:geometricPrecision; text-rendering:geometricPrecision; image-rendering:optimizeQuality; fill-rule:evenodd; clip-rule:evenodd"
viewBox="25500 0 50000 72000"
 xmlns:xlink="http://www.w3.org/1999/xlink"
 xmlns:xodm="http://www.corel.com/coreldraw/odm/2003">
 <defs>
  <style type="text/css">
   <![CDATA[
    .fil0 {fill:#303035}
    .fil1 {fill:#F4B700}
    .fil2 {fill:#FA5030}
    .fil3 {fill:#FEFEFE}
   ]]>
  </style>
 </defs>
 <g id="Camada_x0020_1">
  <metadata id="CorelCorpID_0Corel-Layer"/>
  <g id="_1372740978784">
   <path class="fil0" d="M47474.79 56808.03l1677.99 0c-21.42,1010.55 -21.42,2021.07 -21.42,3031.62 0,496.2 -11.28,1005.33 -0.12,1499.88 7.2,319.05 131.88,320.88 427.56,320.22l13589.49 -0.18c263.28,0.6 458.31,24.6 474.06,-271.62 25.56,-480.42 1.08,-1034.37 1.08,-1522.89 0,-1019.01 0,-2038.02 0,-3057.03l1656.78 0.21 0 6968.4c0.15,771.54 -114.21,1354.89 -508.32,1827.18 -869.16,1041.54 -2104.71,921.45 -3731.94,921.45 -3098.79,0 -6197.58,0 -9296.37,0 -1666.47,0 -2852.82,134.31 -3716.82,-936.69 -338.19,-419.22 -534.72,-1071.45 -550.35,-1760.88 -17.49,-772.05 -1.62,-1562.91 -1.62,-2337.06 0,-1560.87 0,-3121.74 0,-4682.61zm6890.28 -5248.77c0.12,-1268.25 -38.79,-2913.72 21.21,-4114.2 30.6,-612.15 26.01,-766.56 517.98,-980.52 681.33,-296.28 1882.11,-287.19 2517.45,52.32 421.26,225.12 436.44,429.12 528.75,966.99 179.1,1043.7 900.81,6160.8 746.73,6710.34 -376.02,1341.27 -3338.97,1333.32 -4086.75,137.04 -271.98,-435.12 -245.49,-2137.08 -245.37,-2771.97zm4902.9 -3555.99c-12.78,-236.4 -43.35,-608.46 -0.21,-833.52 137.49,-717.27 2404.83,-1195.89 3192.15,-611.31 255.99,190.08 391.92,926.16 474.75,1251.3 313.26,1229.58 1070.97,4525.32 1224.03,5685.42 245.37,1859.79 -3765.6,2324.64 -4210.29,730.38 -240.48,-862.23 -311.46,-2116.71 -399,-3059.37 -97.35,-1048.68 -224.34,-2106.93 -281.43,-3162.9zm-6103.92 888.93l2.73 3886.26c-4.53,1583.25 -183.75,2377.83 -2109,2375.52 -1470.63,-1.74 -2292.24,-240.63 -2176.44,-1791.72 43.44,-581.58 146.76,-1174.35 216.84,-1754.67 152.52,-1263.21 355.5,-3173.85 595.5,-4381.92 69.45,-349.59 148.05,-491.37 375.06,-643.02 486.63,-325.05 1825.38,-454.53 2486.25,-178.35 118.2,49.41 237.6,111 336.06,172.23 109.47,68.07 205.08,152.1 304.32,199.05l-31.32 2116.62zm-4618.5 -2088.09c34.05,693.03 -256.29,2429.04 -372.84,3189.66 -157.29,1026.66 -336.6,2048.82 -517.05,3063.15 -83.52,469.44 -137.91,1092.18 -405.03,1375.53 -222.33,235.83 -731.58,496.77 -1145.91,632.28 -1099.05,359.49 -2154.33,91.53 -2704.74,-571.53 -305.76,-368.34 -102.66,-717.24 55.86,-1392.21 338.4,-1440.78 717.42,-2845.5 1068.96,-4290.57 112.95,-464.19 237.18,-946.23 378.24,-1399.92 166.14,-534.24 339.78,-762.24 819.72,-957.54 593.52,-241.53 1685.34,-266.46 2291.46,-29.1 111.57,43.68 220.98,111.45 290.82,167.13 109.08,86.97 103.5,146.25 240.51,213.12zm15650.07 487.95c-115.95,-1075.92 1510.59,-1150.74 2421.03,-953.55 1237.2,267.9 1204.86,828.57 1524.42,2055.69l1078.5 4257.96c66.99,274.74 323.1,1265.04 309.81,1497.93 -20.31,355.29 -573.36,782.67 -877.56,906.27 -834.6,339.15 -2122.5,90.9 -2875.23,-410.88 -418.08,-278.73 -477.54,-600.48 -596.97,-1208.64 -196.11,-998.7 -359.28,-2017.32 -518.37,-3031.26 -81.27,-517.98 -156.57,-1033.77 -232.98,-1547.73 -76.11,-511.8 -178.05,-1059.12 -232.65,-1565.79zm-22891.44 -5537.19l0 29616.36c0,246.39 210.81,457.2 457.2,457.2l29616.36 0c246.39,0 457.2,-210.81 457.2,-457.2l0 -29616.36c0,-246.39 -210.81,-457.2 -457.2,-457.2l-29616.36 0c-246.39,0 -457.2,210.81 -457.2,457.2z"/>
   <path class="fil1" d="M55974.54 62733.03c1030.14,-249.54 2346.21,857.43 1628.28,2026.59 -727.71,1185.06 -2245.83,696.24 -2529.3,-225.03 -153.54,-498.93 7.35,-1585.11 901.02,-1801.56zm-8499.75 -5925c0,1560.87 0,3121.74 0,4682.61 0,774.15 -15.87,1565.01 1.62,2337.06 15.63,689.43 212.16,1341.66 550.35,1760.88 864,1071 2050.35,936.69 3716.82,936.69 3098.79,0 6197.58,0 9296.37,0 1627.23,0 2862.78,120.09 3731.94,-921.45 394.11,-472.29 508.47,-1055.64 508.32,-1827.18l0 -6968.4 -1656.78 -0.21c0,1019.01 0,2038.02 0,3057.03 0,488.52 24.48,1042.47 -1.08,1522.89 -15.75,296.22 -210.78,272.22 -474.06,271.62l-13589.49 0.18c-295.68,0.66 -420.36,-1.17 -427.56,-320.22 -11.16,-494.55 0.12,-1003.68 0.12,-1499.88 0,-1010.55 0,-2021.07 21.42,-3031.62l-1677.99 0z"/>
   <path class="fil2" d="M59267.97 48003.27c57.09,1055.97 184.08,2114.22 281.43,3162.9 87.54,942.66 158.52,2197.14 399,3059.37 444.69,1594.26 4455.66,1129.41 4210.29,-730.38 -153.06,-1160.1 -910.77,-4455.84 -1224.03,-5685.42 -82.83,-325.14 -218.76,-1061.22 -474.75,-1251.3 -787.32,-584.58 -3054.66,-105.96 -3192.15,611.31 -43.14,225.06 -12.57,597.12 0.21,833.52z"/>
   <path class="fil3" d="M54365.07 51559.26c-0.12,634.89 -26.61,2336.85 245.37,2771.97 747.78,1196.28 3710.73,1204.23 4086.75,-137.04 154.08,-549.54 -567.63,-5666.64 -746.73,-6710.34 -92.31,-537.87 -107.49,-741.87 -528.75,-966.99 -635.34,-339.51 -1836.12,-348.6 -2517.45,-52.32 -491.97,213.96 -487.38,368.37 -517.98,980.52 -60,1200.48 -21.09,2845.95 -21.21,4114.2z"/>
   <path class="fil3" d="M64195.62 47292.06c54.6,506.67 156.54,1053.99 232.65,1565.79 76.41,513.96 151.71,1029.75 232.98,1547.73 159.09,1013.94 322.26,2032.56 518.37,3031.26 119.43,608.16 178.89,929.91 596.97,1208.64 752.73,501.78 2040.63,750.03 2875.23,410.88 304.2,-123.6 857.25,-550.98 877.56,-906.27 13.29,-232.89 -242.82,-1223.19 -309.81,-1497.93l-1078.5 -4257.96c-319.56,-1227.12 -287.22,-1787.79 -1524.42,-2055.69 -910.44,-197.19 -2536.98,-122.37 -2421.03,953.55z"/>
   <path class="fil3" d="M48545.55 46804.11c-137.01,-66.87 -131.43,-126.15 -240.51,-213.12 -69.84,-55.68 -179.25,-123.45 -290.82,-167.13 -606.12,-237.36 -1697.94,-212.43 -2291.46,29.1 -479.94,195.3 -653.58,423.3 -819.72,957.54 -141.06,453.69 -265.29,935.73 -378.24,1399.92 -351.54,1445.07 -730.56,2849.79 -1068.96,4290.57 -158.52,674.97 -361.62,1023.87 -55.86,1392.21 550.41,663.06 1605.69,931.02 2704.74,571.53 414.33,-135.51 923.58,-396.45 1145.91,-632.28 267.12,-283.35 321.51,-906.09 405.03,-1375.53 180.45,-1014.33 359.76,-2036.49 517.05,-3063.15 116.55,-760.62 406.89,-2496.63 372.84,-3189.66z"/>
   <path class="fil2" d="M53195.37 46775.58c-99.24,-46.95 -194.85,-130.98 -304.32,-199.05 -98.46,-61.23 -217.86,-122.82 -336.06,-172.23 -660.87,-276.18 -1999.62,-146.7 -2486.25,178.35 -227.01,151.65 -305.61,293.43 -375.06,643.02 -240,1208.07 -442.98,3118.71 -595.5,4381.92 -70.08,580.32 -173.4,1173.09 -216.84,1754.67 -115.8,1551.09 705.81,1789.98 2176.44,1791.72 1925.25,2.31 2104.47,-792.27 2109,-2375.52l-2.73 -3886.26 31.32 -2116.62z"/>
   <path class="fil0" d="M55974.54 62733.03c-893.67,216.45 -1054.56,1302.63 -901.02,1801.56 283.47,921.27 1801.59,1410.09 2529.3,225.03 717.93,-1169.16 -598.14,-2276.13 -1628.28,-2026.59z"/>
  </g>
 </g>
</svg>
