<?xml version="1.0" standalone="no"?>
<!DOCTYPE svg PUBLIC "-//W3C//DTD SVG 20010904//EN"
 "http://www.w3.org/TR/2001/REC-SVG-20010904/DTD/svg10.dtd">
<svg version="1.0" xmlns="http://www.w3.org/2000/svg"
 width="1202.000000pt" height="1202.000000pt" viewBox="0 0 1202.000000 1202.000000"
 preserveAspectRatio="xMidYMid meet">

<g transform="translate(0.000000,1202.000000) scale(0.100000,-0.100000)"
fill="#000000" stroke="none">
<path d="M115 12001 c-48 -22 -79 -54 -100 -103 -13 -34 -15 -630 -15 -5888 0
-5258 2 -5854 15 -5888 21 -49 52 -81 100 -103 39 -18 224 -19 5895 -19 5671
0 5856 1 5895 19 48 22 79 54 100 103 13 34 15 630 15 5890 0 5669 -1 5854
-19 5893 -22 48 -54 79 -103 100 -34 13 -630 15 -5890 15 -5669 0 -5854 -1
-5893 -19z m2253 -1942 c126 -13 250 -43 309 -73 27 -13 76 -50 111 -81 l62
-57 0 -91 c0 -250 -139 -1194 -350 -2374 -64 -359 -85 -436 -133 -499 -50 -66
-154 -140 -282 -204 -192 -95 -379 -140 -585 -140 -272 0 -495 88 -645 253
-70 76 -98 130 -97 182 1 77 502 2093 639 2570 68 241 104 301 229 384 83 56
212 102 334 120 41 6 86 13 100 15 55 8 216 5 308 -5z m3741 -14 c167 -37 310
-107 366 -180 15 -20 34 -68 45 -112 57 -228 184 -1143 279 -2008 75 -677 77
-758 22 -869 -96 -195 -344 -315 -686 -333 -363 -18 -724 110 -871 309 -106
145 -115 248 -121 1534 -6 1259 2 1433 68 1508 59 68 218 132 394 161 116 19
398 13 504 -10z m3831 -4 c325 -70 438 -159 515 -405 74 -237 496 -1899 600
-2361 60 -266 65 -327 35 -390 -51 -105 -227 -251 -355 -293 -197 -66 -506
-60 -765 15 -222 63 -429 201 -488 324 -67 138 -180 774 -392 2199 -60 398
-80 562 -77 607 12 163 172 282 432 323 101 15 387 5 495 -19z m-6860 -5046
c0 -1008 -3 -962 61 -984 44 -15 5527 -16 5582 0 70 19 67 -29 67 989 l0 910
325 0 326 0 -3 -1507 -3 -1508 -27 -99 c-110 -400 -411 -638 -878 -696 -117
-14 -5072 -14 -5190 0 -463 57 -770 318 -870 742 -39 167 -40 216 -40 1660 l0
1408 325 0 325 0 0 -915z"/>
<path d="M5800 3589 c-171 -29 -308 -159 -364 -347 -25 -87 -39 -250 -27 -318
35 -188 191 -339 407 -394 235 -60 452 26 589 235 144 219 120 450 -65 635
-144 144 -359 220 -540 189z"/>
</g>
</svg>
